<svg height="419" viewBox="0 6.6 720.41 127.28" width="2500" xmlns="http://www.w3.org/2000/svg"><g fill="#004289"><path d="m711.37 27.64c4.78 0 8.86-3.71 8.86-8.79s-4.08-8.74-8.86-8.74-8.91 3.71-8.91 8.74 4.08 8.79 8.91 8.79zm-7.14-8.79c0-4.15 3.13-7.28 7.14-7.28s7.1 3.13 7.1 7.28-3.13 7.33-7.1 7.33-7.14-3.11-7.14-7.33zm5.29.7h1.76l2.67 4.38h1.72l-2.88-4.45c1.48-.19 2.62-.97 2.62-2.78 0-1.99-1.18-2.88-3.57-2.88h-3.85v10.11h1.53zm0-1.3v-3.13h2.09c1.07 0 2.2.23 2.2 1.48 0 1.55-1.16 1.65-2.46 1.65z" fill-rule="evenodd"/><path d="m702.29 18.85c0 5.03 3.99 8.97 9.08 8.97s9.04-3.94 9.04-8.97-3.97-8.92-9.04-8.92-9.08 3.92-9.08 8.92zm.35 0c0-4.8 3.83-8.57 8.73-8.57s8.68 3.76 8.68 8.57-3.81 8.61-8.68 8.61-8.73-3.78-8.73-8.61z"/><path d="m704.05 18.85c0 4.28 3.15 7.51 7.32 7.51s7.27-3.23 7.27-7.51-3.19-7.46-7.27-7.46-7.32 3.21-7.32 7.46zm.35 0c0-4.05 3-7.11 6.97-7.11s6.92 3.12 6.92 7.11-2.98 7.15-6.92 7.15-6.97-3.08-6.97-7.15z"/><path d="m707.8 13.64v10.46h1.88v-4.38h1.49c.1.16 2.67 4.38 2.67 4.38h2.14l-2.92-4.52c1.63-.3 2.52-1.27 2.52-2.89 0-2.05-1.23-3.05-3.75-3.05zm4.03.35c2.35 0 3.4.83 3.4 2.7 0 1.53-.83 2.4-2.47 2.61l-.28.03 2.85 4.42h-1.29c-.1-.16-2.67-4.38-2.67-4.38h-2.04v4.38h-1.18v-9.76h3.67z"/><path d="m709.34 14.94v3.48h2.01c1.11 0 2.63 0 2.63-1.82 0-1.1-.8-1.66-2.38-1.66zm2.26.35c1.38 0 2.03.42 2.03 1.31 0 1.36-.95 1.47-2.28 1.47h-1.66v-2.78zm-472.02 49.62c.26 11.89 8.9 20.58 21.91 20.58h10.24l-4.06 15.15h-10.24c-24.13 0-38.46-19.56-31.99-43.7s31.27-43.7 55.41-43.7h10.24l-4.06 15.15h-10.24c-13.21 0-26.77 9.12-33.29 21.31h37.7l-4.06 15.15h-37.7z"/><path d="m280.85 9.72c-25.59 0-51.97 20.77-58.81 46.31-3.49 13.04-1.53 25.29 5.53 34.49 6.75 8.8 17.36 13.64 29.87 13.64h12.95l5.95-22.2h-14.84c-9.47 0-16.32-5.33-17.99-13.59h36.35l5.95-22.2h-35.73c6.68-8.58 16.95-14.26 26.72-14.26h12.95l5.95-22.2h-14.84zm-47.69 76.51c-3.81-4.96-5.75-11.11-5.75-17.9 0-3.36.48-6.88 1.44-10.48 6.07-22.65 29.4-41.09 52-41.09h5.65c-.9 3.35-1.55 5.79-2.17 8.1h-7.54c-14.13 0-29.09 9.53-36.39 23.17l-2.78 5.19h38.99c-.9 3.35-1.55 5.79-2.17 8.1h-35s-1.26 6.46-1.3 6.68c-.21-.3-2.08-3.02-2.08-3.02.31 14.15 10.77 24.03 25.43 24.03h5.65c-.9 3.35-1.55 5.79-2.17 8.1h-7.54c-10.27 0-18.89-3.87-24.27-10.89z"/><path d="m312.57 85.49-12.43.13 9.67-36.09h-15.15l-13.69 51.11h27.54c24.13 0 48.94-19.56 55.41-43.7 6.47-24.13-7.85-43.7-31.99-43.7h-27.54l-4.06 15.15h27.54c15.77 0 24.98 12.78 20.75 28.55-4.22 15.77-20.43 28.55-36.2 28.55z" fill-rule="evenodd"/><path d="m301.69 9.72-5.95 22.2h32.13c6.27 0 11.52 2.33 14.77 6.56 3.48 4.54 4.4 10.77 2.58 17.55-3.83 14.3-18.54 25.94-32.79 25.94 0 0-4.08.04-7.67.08 1.84-6.88 9.66-36.04 9.66-36.04h-22.45l-15.58 58.16h32.13c25.59 0 51.97-20.77 58.81-46.31 3.5-13.04 1.53-25.29-5.53-34.49-6.75-8.8-17.36-13.64-29.87-13.64h-30.24zm30.24 7.05c10.27 0 18.89 3.87 24.27 10.89 3.81 4.96 5.75 11.11 5.75 17.9 0 3.36-.48 6.88-1.44 10.48-6.07 22.65-29.4 41.08-52 41.08h-22.95c1.87-6.99 10.66-39.79 11.81-44.06h7.85l-9.68 36.14 17.07-.18c17.17-.11 34.83-14.04 39.42-31.16.77-2.89 1.16-5.73 1.16-8.45 0-5.7-1.68-10.93-4.96-15.21-4.61-6.01-11.84-9.32-20.36-9.32h-22.94c.9-3.35 1.55-5.79 2.17-8.1h24.83z" fill-rule="evenodd"/><path d="m396.93 49.65h-24.5l-13.69 51.11 15.16-.06 9.69-36.18h8.98l11.34 36.3h16.48l-12.31-40.34c8.21-4.55 14.95-12.44 17.36-21.41 3.78-14.1-4.59-25.52-18.68-25.52l-25.12-.06-4.03 15.03 25.15-.02c5.84 0 9.31 4.74 7.74 10.58s-7.57 10.58-13.41 10.58h-.15z"/><path d="m373.01 32.04 29.74-.02c1.66 0 2.96.55 3.75 1.59.86 1.12 1.07 2.74.58 4.55-1.16 4.32-5.74 7.97-10.01 7.97h-27.35l-15.59 58.18 22.47-.09s8.49-31.67 9.69-36.17h3.68c1.34 4.3 11.34 36.3 11.34 36.3h23.83s-11.53-37.77-12.91-42.31c8.14-5.29 14.27-13.34 16.6-22.06.7-2.59 1.04-5.14 1.04-7.59 0-5.17-1.53-9.93-4.52-13.82-4.23-5.51-10.84-8.54-18.61-8.54l-27.83-.07-5.92 22.09zm11.32-15.02 22.41.05c5.54 0 10.16 2.05 13.02 5.79 2.02 2.64 3.06 5.92 3.06 9.57 0 1.83-.26 3.76-.79 5.74-2.08 7.77-7.94 14.96-15.66 19.24l-2.5 1.38 11.76 38.52h-9.13c-1.34-4.3-11.34-36.3-11.34-36.3h-14.27l-9.7 36.19c-2.3 0-4.53.02-7.86.03 1.88-7.01 10.66-39.77 11.8-44.04h21.95c7.45 0 14.84-5.79 16.82-13.19.33-1.23.49-2.45.49-3.64 0-2.61-.78-5.07-2.29-7.03-2.15-2.8-5.47-4.35-9.35-4.35 0 0-13.3.01-20.55.02.89-3.32 1.52-5.67 2.13-7.97zm193.39-3.73-11.72 43.75c-6.46 24.12 7.85 43.67 31.97 43.67l.44.11h2.36l4.08-15.24h-2.83c-15.76 0-25.11-12.78-20.89-28.54l11.72-43.75h-15.13z"/><path d="m575.01 9.76-12.42 46.36c-1.13 4.22-1.69 8.35-1.69 12.33 0 8.31 2.44 15.92 7.21 22.14 6.65 8.67 17.05 13.47 29.32 13.61.06.01.55.13.55.13h5.48l5.97-22.28h-7.42c-6.32 0-11.6-2.35-14.88-6.63-3.48-4.54-4.41-10.74-2.61-17.47l12.91-48.19h-22.43zm13.24 7.05-10.53 39.31c-.77 2.86-1.15 5.67-1.15 8.38 0 5.7 1.68 10.92 4.97 15.21 4.32 5.63 10.94 8.87 18.73 9.3-.89 3.33-1.55 5.77-2.19 8.17h-.12c-10.26 0-18.87-3.86-24.25-10.88-3.81-4.96-5.75-11.1-5.75-17.88 0-3.36.48-6.87 1.44-10.47l11.02-41.14h7.83zm-56.82-3.51-11.72 43.75c-6.46 24.12 7.85 43.67 31.97 43.67l.44.11h2.36l4.08-15.24h-2.83c-15.76 0-25.11-12.78-20.89-28.54l11.72-43.75z"/><path d="m528.72 9.78-12.42 46.36c-1.13 4.22-1.69 8.35-1.69 12.33 0 8.31 2.44 15.92 7.21 22.14 6.65 8.67 17.05 13.47 29.32 13.61.06.01.55.13.55.13h5.49l5.97-22.29h-7.42c-6.32 0-11.6-2.35-14.88-6.63-3.48-4.54-4.41-10.74-2.61-17.47l12.91-48.19h-22.43zm13.24 7.05-10.53 39.31c-.77 2.86-1.15 5.67-1.15 8.38 0 5.69 1.68 10.92 4.97 15.21 4.32 5.63 10.94 8.87 18.73 9.3-.89 3.33-1.55 5.77-2.19 8.17h-.12c-10.26 0-18.87-3.86-24.25-10.88-3.8-4.96-5.75-11.1-5.75-17.88 0-3.36.48-6.87 1.44-10.47 0 0 9.79-36.52 11.02-41.14z"/></g><path d="m611.63 57.16c6.46-24.12 31.25-43.67 55.37-43.67s38.43 19.55 31.97 43.67-31.25 43.67-55.37 43.67-38.43-19.55-31.97-43.67zm15.13 0c4.22-15.76 20.42-28.54 36.18-28.54s25.11 12.78 20.89 28.54-20.42 28.54-36.18 28.54-25.11-12.78-20.89-28.54z" fill="#004288" fill-rule="evenodd"/><g fill="#004289"><path d="m608.23 56.25c-1.13 4.22-1.69 8.35-1.69 12.33 0 8.31 2.44 15.92 7.21 22.14 6.75 8.79 17.35 13.64 29.85 13.64 25.57 0 51.93-20.76 58.77-46.28 3.49-13.03 1.53-25.27-5.52-34.47-6.75-8.79-17.35-13.63-29.85-13.63-25.57 0-51.93 20.76-58.77 46.28zm11.12 30.18c-5.69-7.42-7.22-17.49-4.31-28.35 6.07-22.64 29.38-41.05 51.96-41.05 10.26 0 18.87 3.86 24.25 10.88 5.69 7.42 7.22 17.49 4.31 28.35-6.07 22.64-29.38 41.06-51.96 41.06-10.26 0-18.87-3.86-24.25-10.88z"/><path d="m623.36 56.25c-2.38 8.89-1.03 17.27 3.82 23.59 4.65 6.05 11.92 9.39 20.47 9.39 17.23 0 34.99-13.97 39.59-31.15 2.38-8.89 1.03-17.27-3.82-23.59-4.65-6.05-11.92-9.39-20.47-9.39-17.23 0-34.99 13.97-39.59 31.15zm39.59-24.1c6.32 0 11.6 2.35 14.88 6.63 3.48 4.54 4.41 10.74 2.61 17.47-3.83 14.3-18.54 25.93-32.78 25.93-6.32 0-11.6-2.35-14.88-6.63-2.32-3.02-3.5-6.79-3.5-10.95 0-2.09.3-4.28.9-6.52 3.83-14.29 18.54-25.92 32.78-25.92z"/><path d="m425.25 57.33c6.46-24.12 31.25-43.67 55.37-43.67s38.43 19.55 31.97 43.67-31.25 43.67-55.37 43.67-38.43-19.55-31.97-43.67zm15.13 0c4.22-15.76 20.42-28.54 36.18-28.54s25.11 12.78 20.89 28.54-20.42 28.54-36.18 28.54-25.11-12.78-20.89-28.54z" fill-rule="evenodd"/><path d="m421.84 56.42c-3.49 13.03-1.53 25.27 5.52 34.47 6.75 8.79 17.35 13.63 29.85 13.63 25.57 0 51.94-20.76 58.77-46.28 3.49-13.03 1.53-25.27-5.52-34.47-6.75-8.79-17.35-13.63-29.85-13.63-25.57 0-51.93 20.76-58.77 46.28zm58.77-39.23c10.26 0 18.87 3.86 24.25 10.88 5.69 7.42 7.22 17.49 4.31 28.35-6.07 22.64-29.38 41.05-51.96 41.05-10.26 0-18.87-3.86-24.25-10.88-5.69-7.42-7.22-17.48-4.31-28.35 6.07-22.64 29.38-41.05 51.96-41.05z"/><path d="m436.97 56.42c-.77 2.86-1.15 5.67-1.15 8.38 0 5.69 1.68 10.92 4.97 15.21 4.65 6.05 11.92 9.39 20.47 9.39 17.23 0 34.99-13.97 39.59-31.15 2.38-8.89 1.03-17.27-3.82-23.59-4.65-6.05-11.92-9.39-20.47-9.39-17.23 0-34.99 13.97-39.59 31.15zm9.41 19.29c-3.48-4.54-4.41-10.74-2.6-17.47 3.83-14.29 18.53-25.92 32.78-25.92 6.32 0 11.6 2.35 14.88 6.63 3.48 4.54 4.41 10.74 2.6 17.47-3.83 14.3-18.53 25.93-32.78 25.93-6.32 0-11.6-2.35-14.88-6.63zm-299.78 21.87c4.77 2.49 10.21 3.43 17.08 3.43 24.13 0 48.94-19.56 55.41-43.7 6.47-24.13-7.86-43.7-31.99-43.7s-48.94 19.56-55.41 43.7l-18.69 69.75 17.6-9.14 16.24-60.61c4.22-15.77 20.43-28.55 36.2-28.55s25.12 12.78 20.9 28.55-20.43 28.55-36.2 28.55c-7.5 0-12.47-.43-16.05-4.57l-5.09 16.28z"/><path d="m128.28 56.4-20.76 77.48 26.08-13.55 16.64-62.11c3.83-14.3 18.54-25.94 32.79-25.94 6.32 0 11.61 2.36 14.89 6.63 3.48 4.54 4.41 10.75 2.61 17.48-3.83 14.3-18.54 25.94-32.79 25.94-7.39 0-10.89-.47-13.38-3.35l-4.14-4.78-7.86 25.13 2.61 1.36c5.07 2.65 10.84 3.83 18.71 3.83 25.59 0 51.97-20.77 58.81-46.31 3.49-13.04 1.53-25.29-5.53-34.49-6.75-8.8-17.36-13.64-29.87-13.64-25.59 0-51.97 20.77-58.81 46.31zm6.81 1.82c6.07-22.65 29.4-41.09 52-41.09 10.27 0 18.89 3.87 24.27 10.89 5.69 7.42 7.23 17.5 4.31 28.38-6.07 22.65-29.4 41.09-52 41.09-5.26 0-9.31-.61-12.77-1.88.8-2.57 1.55-4.96 2.65-8.48 3.96 2.01 8.7 2.26 14.18 2.26 17.23 0 35-13.98 39.6-31.16 2.38-8.9 1.03-17.28-3.82-23.59-4.65-6.06-11.92-9.39-20.48-9.39-17.23 0-35 13.98-39.6 31.16 0 0-15.07 56.26-15.84 59.11-1.32.68-4.73 2.46-9.12 4.74 3.27-12.22 16.62-62.03 16.62-62.03z"/></g><path d="m14.11 22.21c9.27-9.63 22.3-15.61 36.72-15.61 23.66 0 43.55 16.11 49.31 37.96 0 0-17.87.29-29.14-1.28-12.49-1.74-19.63-3.23-31.4-7.78-10.46-4.04-25.49-13.29-25.49-13.29zm42.39 26.15c-14.12-1.69-22.17-2.68-35.91-6.34-6.47-1.72-16.39-5.08-16.39-5.08a51.9 51.9 0 0 1 4.46-8.03c3.26 1.61 5.11 2.72 8.47 4.27 15.69 7.22 25.66 8.97 42.73 11.62 15.76 2.45 40.84 2.09 40.84 2.09.26 1.24.48 2.49.65 3.76 0 0-27.46-.21-44.85-2.29zm-56.5 5.2c.26-3.4.86-6.7 1.76-9.88 19.4 4.1 31.36 6.14 51.66 7.94 18.73 1.66 48.19 1.43 48.19 1.43.07.83.13 1.66.16 2.5l-44.8-.19zm14.11 38.04c9.27 9.63 22.3 15.62 36.72 15.62 23.66 0 43.55-16.11 49.31-37.96 0 0-17.87-.29-29.14 1.28-12.49 1.74-19.63 3.23-31.4 7.78-10.46 4.04-25.49 13.29-25.49 13.29zm42.39-26.15c-14.12 1.69-22.17 2.68-35.91 6.34-6.47 1.72-16.39 5.08-16.39 5.08a51.9 51.9 0 0 0 4.46 8.03c3.26-1.61 5.11-2.72 8.47-4.27 15.69-7.22 25.66-8.97 42.73-11.62 15.76-2.45 40.84-2.08 40.84-2.08.26-1.24.48-2.49.65-3.76 0 0-27.46.21-44.85 2.29zm-56.5-5.2c.26 3.4.86 6.7 1.76 9.88 19.4-4.1 31.36-6.14 51.66-7.94 18.73-1.66 48.19-1.43 48.19-1.43.07-.83.13-1.66.16-2.5l-44.8.19z" fill="#e30613" fill-rule="evenodd"/><text fill="#004289" font-size="60" transform="translate(255.78 168.93)"><tspan font-family="BrushScriptMT, 'Brush Script MT'" x="0" y="0">...bringing water to</tspan><tspan font-family="BrushScriptMT, 'Brush Script MT'" x="404.59" y="0">li</tspan><tspan font-family="BrushScriptMT, 'Brush Script MT'" letter-spacing="-.01em" x="432.07" y="0">f</tspan><tspan font-family="BrushScriptMT, 'Brush Script MT'" x="447.54" y="0">e</tspan></text></svg>